<svg version="1" xmlns="http://www.w3.org/2000/svg" width="944" height="944" viewBox="0 0 708.000000 708.000000"><path d="M344 2.2c-4.6 1.2-8.9 3.2-17.5 8.1-3.8 2.2-10.6 6-15 8.5s-8.3 5-8.7 5.6c-.4.6-.8.7-.8.3 0-.5-1.2 0-2.7 1.1-1.6 1-4.8 3-7.3 4.4-2.5 1.4-9 5.1-14.5 8.3-14.5 8.5-27.1 15.7-31.3 18-2 1.1-3.9 2.3-4.2 2.6-.3.3-1.8 1.2-3.5 2.1-5 2.5-10 5.3-10.5 5.8-.8.8-4.2 2.8-9 5.1-2.5 1.3-4.7 2.5-5 2.9-.3.3-4.8 3-10 6-5.2 2.9-17.8 10.2-28 16.1-10.2 5.8-20.1 11.6-22 12.7-17.5 9.9-49.8 28.6-50.7 29.4-.7.6-1.3.7-1.3.2 0-.5-.4-.4-.8.2-.4.6-3.8 2.8-7.7 4.9-3.8 2.2-7.1 4.3-7.3 4.7-.2.4-.8.8-1.3.8s-3.7 1.7-7.2 3.8c-3.4 2-8.4 4.8-11.1 6.2-6.3 3.2-16.7 13.2-19.6 19-5.2 10.1-5 2.8-4.7 176.5.1 89.1.6 163.6 1.1 165.5 1.3 5.8 7.3 15.6 12.2 19.9 2.5 2.2 11.4 8 19.7 12.8 8.4 4.8 16.1 9.3 17.2 10 1.1.7 2.7 1.5 3.5 1.9.8.4 3.9 2.2 6.8 4.1 2.8 1.8 5.2 2.9 5.2 2.5 0-.4.4-.2.8.3.4.6 1.8 1.6 3.2 2.3 1.4.7 4.3 2.3 6.5 3.7 2.2 1.4 5.8 3.5 8 4.7 2.2 1.2 4.8 2.7 5.7 3.3.9.5 6.8 3.9 13 7.5 6.2 3.5 16.9 9.7 23.7 13.7 6.7 4 12.4 7.3 12.6 7.3.2 0 3.9 2.1 8.2 4.6 8.4 5.1 14.6 8.6 20.6 11.8 2 1.1 3.7 2.3 3.7 2.8 0 .4.9.8 1.9.8 1.1 0 2.1.3 2.3.8.3.8 16.4 10.2 17.4 10.2.4 0 1.5.6 2.3 1.4.9.7 4.1 2.7 7.1 4.3 7.6 4.1 10.4 5.7 11 6.3.3.3 2.1 1.3 4 2.3 5.9 3.1 9.5 5.2 10 5.7.3.3 1.6 1.1 2.9 1.8 1.3.8 3.8 2.2 5.5 3.1 1.7 1 5.8 3.3 9.1 5.1 3.3 1.9 7.1 4.1 8.5 5 1.4 1 4.8 3 7.5 4.5 7.4 4.2 11.2 6.4 22.4 12.8 5.5 3.2 11.9 6.4 14.3 7.3 6.8 2.4 17.8 2.8 24.4.9 5.9-1.7 15.7-6.3 16.2-7.7.2-.4.7-.8 1.1-.8.5 0 4.8-2.3 9.7-5.1 4.9-2.9 10.7-6.2 12.9-7.4 2.2-1.3 10.7-6.2 18.8-10.9 8.2-4.7 15-8.6 15.3-8.6.3 0 1.7-.8 3.2-1.9 2.4-1.6 29.9-17.6 41.1-23.9 2.5-1.4 6.7-3.8 9.3-5.3 2.7-1.6 5.3-2.9 5.8-2.9.4 0 1-.3 1.2-.8.2-.4 4.6-3.2 9.8-6.1 5.2-3 10.9-6.2 12.5-7.1 17.3-9.9 23.4-13.5 25.5-14.8 1.4-.9 2.7-1.7 3-1.7.3 0 1.6-.8 3-1.7 1.4-.8 13.1-7.6 26-15.1 12.9-7.4 25.1-14.5 27-15.6 1.9-1.2 4.9-2.8 6.5-3.6 1.7-.9 5-2.8 7.5-4.3s7.7-4.5 11.5-6.7c3.9-2.1 7.6-4.5 8.3-5.2.7-.7 2-1.3 2.8-1.3.7 0 2.4-.8 3.5-1.8 10.6-8.5 14.9-14.3 17.9-24 1.9-6.2 2-10.1 1.9-167 0-88.4-.4-162.5-.8-164.7-1.2-5.2-3.3-10.7-4.8-12.3-.7-.7-1.3-1.8-1.3-2.3 0-2.9-10.9-12-21-17.5-1.9-1-3.7-2.2-4-2.5-.3-.3-1.8-1.2-3.5-2.1-5.9-3-9.9-5.3-11.3-6.6-.7-.6-1.8-1.2-2.3-1.2-.5 0-3.2-1.5-6.1-3.3-2.9-1.9-6-3.7-6.8-4-.8-.4-3.1-1.7-5-2.8-1.9-1.2-5.4-3.2-7.7-4.5-2.3-1.3-9.2-5.3-15.3-8.9-6.1-3.6-11.3-6.5-11.5-6.5-.2 0-4.5-2.5-9.5-5.5s-10.7-6.4-12.8-7.5c-2-1.1-5.9-3.4-8.7-5.1-2.7-1.6-5.9-3.4-7-4-2.3-1.2-7.1-4-22-12.7-5.9-3.4-11.1-6.2-11.6-6.2s-.9-.5-.9-1c0-.6-.6-1-1.3-1-.7 0-1.9-.6-2.5-1.3-.7-.6-1.6-1.2-2-1.2-.4 0-5-2.6-10.2-5.7-5.2-3-11.1-6.5-13-7.5-1.9-1.1-8.6-5-14.9-8.7-6.2-3.6-11.6-6.6-11.8-6.6-.3 0-1.7-.8-3.1-1.9-1.5-1-4.7-2.9-7.2-4.3-7.8-4.4-11.9-6.7-27.4-15.7C375 6.4 370.3 3.9 364.7 2.4 359 .9 349.5.8 344 2.2z"/></svg>